G04 EAGLE Gerber RS-274X export*
G75*
%MOMM*%
%FSLAX34Y34*%
%LPD*%
%IN*%
%IPPOS*%
%AMOC8*
5,1,8,0,0,1.08239X$1,22.5*%
G01*
%ADD10C,0.254000*%


D10*
X-6350Y-31750D02*
X736400Y-31750D01*
X736400Y1000000D01*
X-6350Y1000000D01*
X-6350Y-31750D01*
X284798Y476345D02*
X284727Y475266D01*
X284586Y474194D01*
X284375Y473134D01*
X284095Y472090D01*
X283748Y471066D01*
X283334Y470068D01*
X282856Y469098D01*
X282315Y468162D01*
X281715Y467263D01*
X281057Y466406D01*
X280344Y465593D01*
X279580Y464829D01*
X278767Y464116D01*
X277909Y463458D01*
X277011Y462857D01*
X276074Y462317D01*
X275105Y461839D01*
X274106Y461425D01*
X273083Y461077D01*
X272039Y460798D01*
X270978Y460587D01*
X269907Y460446D01*
X268828Y460375D01*
X267747Y460375D01*
X266668Y460446D01*
X265597Y460587D01*
X264536Y460798D01*
X263492Y461077D01*
X262469Y461425D01*
X261470Y461839D01*
X260501Y462317D01*
X259564Y462857D01*
X258666Y463458D01*
X257808Y464116D01*
X256995Y464829D01*
X256231Y465593D01*
X255518Y466406D01*
X254860Y467263D01*
X254260Y468162D01*
X253719Y469098D01*
X253241Y470068D01*
X252827Y471066D01*
X252480Y472090D01*
X252200Y473134D01*
X251989Y474194D01*
X251848Y475266D01*
X251778Y476345D01*
X251778Y477425D01*
X251848Y478504D01*
X251989Y479576D01*
X252200Y480636D01*
X252480Y481680D01*
X252827Y482704D01*
X253241Y483702D01*
X253719Y484672D01*
X254260Y485608D01*
X254860Y486507D01*
X255518Y487364D01*
X256231Y488177D01*
X256995Y488942D01*
X257808Y489654D01*
X258666Y490312D01*
X259564Y490913D01*
X260501Y491453D01*
X261470Y491931D01*
X262469Y492345D01*
X263492Y492693D01*
X264536Y492972D01*
X265597Y493183D01*
X266668Y493324D01*
X267747Y493395D01*
X268828Y493395D01*
X269907Y493324D01*
X270978Y493183D01*
X272039Y492972D01*
X273083Y492693D01*
X274106Y492345D01*
X275105Y491931D01*
X276074Y491453D01*
X277011Y490913D01*
X277909Y490312D01*
X278767Y489654D01*
X279580Y488942D01*
X280344Y488177D01*
X281057Y487364D01*
X281715Y486507D01*
X282315Y485608D01*
X282856Y484672D01*
X283334Y483702D01*
X283748Y482704D01*
X284095Y481680D01*
X284375Y480636D01*
X284586Y479576D01*
X284727Y478504D01*
X284798Y477425D01*
X284798Y476345D01*
M02*
