G04 EAGLE Gerber RS-274X export*
G75*
%MOMM*%
%FSLAX34Y34*%
%LPD*%
%INSoldermask Bottom*%
%IPPOS*%
%AMOC8*
5,1,8,0,0,1.08239X$1,22.5*%
G01*
%ADD10P,1.951982X8X112.500000*%
%ADD11C,1.803400*%
%ADD12P,1.951982X8X292.500000*%
%ADD13R,1.879600X1.879600*%
%ADD14C,1.879600*%
%ADD15C,1.727200*%
%ADD16C,3.505200*%
%ADD17C,2.298700*%
%ADD18P,1.951982X8X22.500000*%
%ADD19P,1.951982X8X202.500000*%
%ADD20C,4.219200*%
%ADD21C,1.711200*%
%ADD22P,1.649562X8X22.500000*%
%ADD23P,1.649562X8X292.500000*%
%ADD24P,1.649562X8X112.500000*%
%ADD25P,1.649562X8X202.500000*%
%ADD26C,0.959600*%
%ADD27C,6.203200*%


D10*
X579438Y781050D03*
D11*
X579438Y755650D03*
D12*
X544513Y806450D03*
D11*
X544513Y831850D03*
D12*
X619125Y804863D03*
D11*
X619125Y830263D03*
D13*
X46038Y942975D03*
D14*
X46038Y917575D03*
X46038Y892175D03*
X46038Y866775D03*
X46038Y841375D03*
X46038Y815975D03*
X46038Y790575D03*
X46038Y765175D03*
X46038Y739775D03*
X46038Y714375D03*
X46038Y688975D03*
X46038Y663575D03*
X46038Y638175D03*
X46038Y612775D03*
X46038Y587375D03*
X198438Y942975D03*
X198438Y917575D03*
X198438Y892175D03*
X198438Y866775D03*
X198438Y841375D03*
X198438Y815975D03*
X198438Y790575D03*
X198438Y765175D03*
X198438Y739775D03*
X198438Y714375D03*
X198438Y688975D03*
X198438Y663575D03*
X198438Y638175D03*
X198438Y612775D03*
X198438Y587375D03*
D15*
X236030Y23432D02*
X251270Y23432D01*
X251270Y68644D02*
X236030Y68644D01*
X186246Y23432D02*
X171006Y23432D01*
X171006Y68644D02*
X186246Y68644D01*
D12*
X495300Y676275D03*
D11*
X495300Y701675D03*
D12*
X431800Y676275D03*
D11*
X431800Y701675D03*
D15*
X242888Y334645D02*
X242888Y319405D01*
X268288Y319405D02*
X268288Y334645D01*
X293688Y334645D02*
X293688Y319405D01*
D16*
X268288Y476885D03*
D17*
X166688Y331153D02*
X166688Y310198D01*
X166688Y178753D02*
X166688Y157798D01*
D18*
X254000Y268288D03*
D11*
X228600Y268288D03*
D18*
X252413Y207963D03*
D11*
X227013Y207963D03*
D19*
X290513Y207963D03*
D11*
X315913Y207963D03*
D19*
X290513Y268288D03*
D11*
X315913Y268288D03*
D20*
X86755Y407988D02*
X46595Y407988D01*
X46595Y484188D02*
X86755Y484188D01*
X539750Y924483D02*
X539750Y964643D01*
X615950Y964643D02*
X615950Y924483D01*
D21*
X656035Y123825D02*
X671115Y123825D01*
X671115Y98425D02*
X656035Y98425D01*
X656035Y73025D02*
X671115Y73025D01*
X664765Y361950D02*
X649685Y361950D01*
X649685Y336550D02*
X664765Y336550D01*
X666353Y242888D02*
X651273Y242888D01*
X651273Y217488D02*
X666353Y217488D01*
X664765Y541338D02*
X649685Y541338D01*
X649685Y515938D02*
X664765Y515938D01*
X664765Y490538D02*
X649685Y490538D01*
X649685Y465138D02*
X664765Y465138D01*
X664765Y439738D02*
X649685Y439738D01*
X644923Y687388D02*
X660003Y687388D01*
X660003Y661988D02*
X644923Y661988D01*
D22*
X458788Y344488D03*
X534988Y344488D03*
X461963Y223838D03*
X538163Y223838D03*
D23*
X360363Y184150D03*
X360363Y158750D03*
D22*
X246063Y158750D03*
X322263Y158750D03*
D21*
X373063Y943373D02*
X373063Y958453D01*
X398463Y958453D02*
X398463Y943373D01*
X423863Y943373D02*
X423863Y958453D01*
D24*
X315913Y903288D03*
X315913Y979488D03*
D23*
X466725Y982663D03*
X466725Y906463D03*
D21*
X56753Y204788D02*
X41673Y204788D01*
X41673Y230188D02*
X56753Y230188D01*
X56753Y255588D02*
X41673Y255588D01*
D25*
X96838Y160338D03*
X20638Y160338D03*
D23*
X109538Y257175D03*
X109538Y180975D03*
D26*
X600075Y549275D03*
X619125Y549275D03*
X619125Y523875D03*
X600075Y523875D03*
D27*
X695325Y958850D03*
X695325Y12700D03*
X34925Y12700D03*
D26*
X247650Y771525D03*
X536575Y549275D03*
X552450Y523875D03*
X444500Y828675D03*
X452438Y828675D03*
X444500Y819150D03*
X452438Y819150D03*
X434975Y800100D03*
X444500Y800100D03*
X434975Y790575D03*
X444500Y790575D03*
X428625Y811213D03*
X458788Y808038D03*
X463550Y800100D03*
X571500Y482600D03*
X571500Y441325D03*
M02*
