M48
;GenerationSoftware,Autodesk,EAGLE,9.6.2*%
;CreationDate,2021-03-26T11:16:31Z*%
FMAT,2
ICI,OFF
METRIC,TZ,000.000
T10C0.350
T9C0.800
T8C0.813
T7C1.000
T6C1.016
T5C1.397
T4C3.000
T3C3.302
T2C3.500
%
G90
M71
T2
X69533Y95885
X69533Y1270
X3492Y1270
T3
X26829Y47688
T4
X61595Y94456
X53975Y94456
X6667Y48419
X6667Y40799
T5
X16669Y16828
X16669Y32067
T6
X17863Y6864
X26829Y32702
X24289Y32702
X24365Y2343
X24365Y6864
X17863Y2343
X29369Y32702
T7
X65723Y46514
X65723Y49054
X65723Y51594
X65881Y21749
X65723Y54134
X65881Y24289
X65723Y33655
X65723Y36195
X66358Y7302
X66358Y9843
X66358Y12382
X65246Y68739
X42386Y95091
X39846Y95091
X37306Y95091
X4921Y20479
X4921Y23019
X4921Y25559
X65723Y43974
X65246Y66199
T8
X49530Y70168
X43180Y67628
X43180Y70168
X9684Y16034
X2064Y16034
X10954Y25717
X46672Y90646
X46672Y98266
X31591Y97949
X25400Y26829
X22860Y26829
X25241Y20796
X22701Y20796
X29051Y20796
X31591Y20796
X29051Y26829
X31591Y26829
X31591Y90329
X32226Y15875
X24606Y15875
X36036Y15875
X36036Y18415
X53816Y22384
X46196Y22384
X53499Y34449
X10954Y18098
X45879Y34449
X49530Y67628
X57944Y78105
X57944Y75565
X54451Y80645
X54451Y83185
X61912Y80486
X61912Y83026
T9
X4604Y68898
X19844Y58737
X4604Y71438
X4604Y73978
X4604Y76518
X4604Y79058
X4604Y81598
X4604Y84138
X4604Y86678
X4604Y89217
X4604Y91757
X4604Y94297
X4604Y63817
X4604Y66358
X19844Y61277
X19844Y63817
X19844Y66358
X19844Y68898
X19844Y71438
X19844Y73978
X19844Y76518
X19844Y79058
X19844Y84138
X19844Y86678
X19844Y89217
X19844Y91757
X19844Y94297
X4604Y58737
X4604Y61277
X19844Y81598
T10
X44450Y81915
X45244Y82868
X44450Y82868
X55245Y52387
X53657Y54927
X24765Y77153
X60007Y52387
X61912Y52387
X61912Y54927
X60007Y54927
X45244Y81915
X43498Y80010
X44450Y80010
X43498Y79058
X44450Y79058
X42863Y81121
X45879Y80804
X46355Y80010
X57150Y48260
X57150Y44132
M30